<svg width="64" height="64" viewBox="0 0 64 64" fill="none" xmlns="http://www.w3.org/2000/svg">
<path d="M49.3333 29.3333C49.3333 28.0145 49.0665 26.7161 48.5529 25.5186C48.0393 24.3211 47.2917 23.2511 46.3638 22.3693C45.4359 21.4875 44.3482 20.8149 43.1611 20.3902C41.9741 19.9655 40.7139 19.7998 39.44 19.8001C37.3867 16.5867 34.0533 14.3334 30.1333 14.3334C24.48 14.3334 19.84 18.9734 19.84 24.6267V24.8401C17.7867 25.5601 16.0267 26.9734 14.88 28.8401C13.7333 30.7067 13.28 32.9201 13.6267 35.0801C13.9733 37.2401 15.08 39.1867 16.7467 40.6001C18.4133 42.0134 20.5333 42.8001 22.7467 42.8001H46.6667C49.0267 41.5201 50.48 39.1334 50.48 36.4667C50.48 33.6801 49.0267 31.2934 46.6667 30.0134" fill="#E8EAED"/>
<path d="M37.8133 42.7999C39.4133 42.7999 40.7333 43.9066 40.9333 45.4532L42.6667 58.3332H32L34.0267 45.4532C34.2267 43.9066 35.5467 42.7999 37.1467 42.7999H37.8133Z" fill="#8AB4F8"/>
<path d="M22.8533 42.7999C24.4533 42.7999 25.7733 43.9066 25.9733 45.4532L27.3333 55.3332H18L20.0267 45.4532C20.2267 43.9066 21.5467 42.7999 23.1467 42.7999H22.8533Z" fill="#8AB4F8"/>
</svg>